<svg xmlns="http://www.w3.org/2000/svg" width="621.47" height="740.57" viewBox="0 0 621.47 740.57"><title>logo</title><path d="M618.25 243.7A286.54 286.54 0 0 0 132.42 83.89a287.1 287.1 0 0 0-80.16 155.64q-.36 2.15-.68 4.31h-1.37a50.28 50.28 0 1 0 5.66.33c.2-1.3.4-2.6.62-3.9A281.55 281.55 0 0 1 292.74 7.51c153.87-23.28 298 83 321.27 236.83a282.42 282.42 0 0 1-66.87 228.3l3.23 2.82a286.7 286.7 0 0 0 67.88-231.76zM97.56 294.02a47.35 47.35 0 1 1-47.35-47.35 47.4 47.4 0 0 1 47.35 47.35z"/><path d="M50.55 320.91a27.24 27.24 0 1 1 27.24-27.24 27.27 27.27 0 0 1-27.24 27.24zm0-53.05a25.81 25.81 0 1 0 25.81 25.81 25.84 25.84 0 0 0-25.81-25.81zM559.73 297.9a25.74 25.74 0 0 0-3.34-1 52.83 52.83 0 0 0-5.33-1l-3.32-.37c-1.17-.09-2.41-.14-3.7-.21s-2.64 0-4-.06-2.83.08-4.31.12l-4.54.28c-1.55.14-3.13.28-4.73.46-3.2.38-6.51.79-9.85 1.36-1.67.28-3.35.55-5 .88s-3.37.63-5.05 1c-3.37.69-6.72 1.46-10 2.24s-6.51 1.63-9.62 2.47-6.1 1.7-8.92 2.55c-1.72.51-3.37 1-5 1.52 2.56-5 5.18-10.42 7.76-16q1.79-3.89 3.44-7.69l.31-.17c2.48-1.39 5.05-2.69 7.64-4 1.3-.63 2.61-1.23 3.91-1.84s2.62-1.15 3.94-1.69 2.62-1.07 3.92-1.56 2.58-1 3.87-1.41c2.55-.88 5-1.66 7.43-2.35l3.49-.94c1.13-.29 2.23-.53 3.29-.78s2.07-.45 3-.65 1.88-.4 2.75-.55c1.74-.28 3.25-.56 4.51-.72l4-.51-4 .24c-1.27.09-2.8.29-4.56.47-.88.1-1.81.26-2.79.4s-2 .3-3.08.52-2.19.41-3.34.66l-3.54.84c-1.21.31-2.45.66-3.71 1s-2.54.79-3.84 1.19c-2.59.85-5.25 1.8-7.91 2.88-1.33.54-2.65 1.12-4 1.69s-2.65 1.2-4 1.83c-2.18 1.08-4.34 2.2-6.44 3.36 15.27-35.62 21.66-65 19-87.48-4.53-38.14-23.59-51.54-38.78-56.07-14.94-4.45-33.94-2.7-53.49 4.93-16.34 6.38-31.51 16.31-39.65 25.94a6.35 6.35 0 1 0 2.62 3c15-17.87 58.56-39 89.28-29.82 20.3 6.05 32.33 23.7 35.75 52.46 3.22 27.12-8.22 61.79-21.09 90.68l-2.06 1.32a143.87 143.87 0 0 0-12.08 8.72c-3.4 2.73-6.07 5.19-7.91 6.94s-2.8 2.84-2.8 2.84 1.06-1 3-2.63 4.75-3.91 8.23-6.5c1.75-1.29 3.65-2.65 5.71-4s4.25-2.81 6.54-4.25l.49-.29c-3.55 7.85-7.18 15.24-10.62 21.89-3.62 1.21-6.66 2.29-8.91 3.1-2.82 1-4.42 1.66-4.42 1.66l4.5-1.4c2.15-.67 5-1.52 8.37-2.5-2.08 4-4.09 7.73-6 11.12l-3.69.39c-2 .23-3.21.41-3.21.41l3.23-.14 3.38-.13c-6.6 11.92-11.43 19.51-11.73 20l-2.38-1.58c-34.19 51.3-70.22 77.29-107.12 77.29h-2.12c-32.06-.87-59.35-21.57-76.59-38.78a218.21 218.21 0 0 1-30.5-38.25l-2.46 1.46c-.16-.25-4.72-7.38-11.06-18.76 2.82.08 5.2.15 6.93.23l3.22.05s-1.16-.18-3.21-.41l-3.69-.39c-1.12-.1-2.36-.23-3.7-.34-2-3.61-4.18-7.63-6.44-12l.62.18c4.94 1.42 9.05 2.62 11.92 3.52l4.5 1.4s-1.59-.64-4.42-1.66-6.86-2.46-11.77-4l-1.41-.45c-3.66-7.08-7.54-15-11.31-23.41 1.86 1.05 3.68 2.12 5.43 3.19 2.29 1.45 4.5 2.84 6.54 4.25s4 2.76 5.71 4c3.48 2.59 6.31 4.84 8.23 6.5s3 2.63 3 2.63-1-1.08-2.8-2.84-4.51-4.21-7.91-6.94a143.86 143.86 0 0 0-12.08-8.71c-2.26-1.42-4.59-2.89-7-4.25-12.6-28.59-23.59-62.53-20.43-89.17 3.42-28.76 15.45-46.41 35.75-52.46 30.44-9.07 73 11.4 88.31 29.16a6.38 6.38 0 1 0 3.21-2.84c-8.22-9.49-23.17-19.2-39.26-25.49-19.55-7.64-38.54-9.39-53.49-4.93-15.25 4.54-34.3 17.94-38.84 56.06-2.64 22.24 3.59 51.27 18.53 86.41l-1.7-.86c-1.31-.63-2.64-1.22-4-1.83s-2.66-1.15-4-1.69c-2.66-1.08-5.31-2-7.91-2.88-1.31-.4-2.57-.84-3.84-1.19s-2.5-.7-3.71-1l-3.55-.84c-1.15-.24-2.27-.45-3.34-.66s-2.1-.37-3.08-.52-1.91-.3-2.79-.4c-1.76-.18-3.29-.38-4.56-.47l-4-.24 4 .51c1.26.16 2.77.44 4.51.72.87.15 1.78.36 2.75.55s2 .38 3 .65 2.15.5 3.28.79l3.49.94c2.38.69 4.87 1.47 7.43 2.35 1.28.42 2.56.94 3.87 1.41s2.6 1 3.92 1.56 2.62 1.13 3.94 1.69 2.61 1.2 3.91 1.84c1.07.52 2.13 1.05 3.19 1.59q1.87 4.34 3.92 8.8c2.61 5.68 5.25 11.11 7.83 16.18l-.74-.22c-2.83-.85-5.82-1.71-8.92-2.55s-6.33-1.69-9.62-2.47-6.64-1.55-10-2.24q-2.52-.52-5.05-1c-1.68-.32-3.36-.6-5-.88-3.34-.56-6.65-1-9.85-1.36-1.6-.17-3.18-.32-4.73-.46l-4.54-.28c-1.48 0-2.92-.1-4.31-.12s-2.74 0-4 .06-2.53.12-3.7.21l-3.32.37a53.2 53.2 0 0 0-5.33 1 25.93 25.93 0 0 0-3.34 1l-1.17.4 1.19-.33 1.42-.39c.56-.17 1.23-.25 2-.41a52.74 52.74 0 0 1 5.33-.76l3.31-.21 3.67-.08c1.28 0 2.61.05 4 .08l4.27.23 4.5.39 4.69.54c3.18.41 6.45.91 9.77 1.47 1.66.29 3.33.57 5 .9s3.35.64 5 1c3.35.67 6.69 1.42 10 2.18l4.87 1.16 4.74 1.18c3.11.81 6.11 1.58 9 2.36l1.68.46c2.44 4.77 4.81 9.2 7 13.2l-1.66-.09c-2-.13-4.15-.21-6.36-.29s-4.49-.13-6.8-.15-4.67 0-7 0-4.71.09-7 .21-4.59.22-6.8.39l-3.24.24c-1.06.08-2.09.21-3.1.31-2 .21-3.92.38-5.67.65s-3.35.47-4.77.68l-3.66.65-3.18.6 3.22-.33 3.68-.4c1.43-.11 3-.24 4.79-.4s3.66-.25 5.67-.4 4.13-.24 6.33-.35c1.1-.05 2.21-.12 3.34-.16l3.43-.11c2.31-.1 4.65-.12 7-.16s4.69 0 7-.07h6.78c2.2 0 4.33 0 6.34.1l2.26.05c6.79 12.28 11.87 20.27 12.37 21.05l-2.46 1.45a224.07 224.07 0 0 0 31.86 40.07c26 26 54.2 40.45 81.64 41.8 1.3 10.72 6.1 29.45 14.83 48.24 9.43 20.3 26.5 47.1 54.24 58.89a76.82 76.82 0 0 0 30.36 6.12c34.43 0 74.06-21.44 118.26-64.06l-7.07-7.11c-29.55 28.5-57.07 47.26-81.78 55.79-20.59 7.11-39.42 7.12-56 .08-24.82-10.54-40.4-35.13-49.09-53.83-8.22-17.69-12.52-34.81-13.83-44.11 38.38-2.48 75.24-29.85 109.69-81.54l-2.41-1.54c.09-.14 5.71-8.9 13.2-22.54h.13l5.68-.13c2-.06 4.14 0 6.34-.09h6.78c2.31 0 4.65 0 7 .07s4.69.06 7 .16l3.43.11c1.13 0 2.25.11 3.34.16 2.2.11 4.32.2 6.33.35s3.92.23 5.67.4 3.36.29 4.79.4l3.68.4 3.22.33-3.18-.6-3.66-.65c-1.42-.21-3-.45-4.77-.68s-3.65-.44-5.67-.65c-1-.1-2-.22-3.1-.31l-3.24-.24c-2.2-.17-4.48-.3-6.8-.39s-4.67-.16-7-.21-4.71 0-7 0-4.6.09-6.8.15-4.34.16-6.36.29-3.65.22-5.3.35c2.06-3.77 4.25-7.9 6.5-12.3q2.77-.78 5.82-1.61c2.84-.78 5.84-1.55 9-2.36l4.74-1.18 4.87-1.16c3.28-.76 6.62-1.51 10-2.18q2.51-.53 5-1c1.67-.33 3.34-.61 5-.9 3.32-.56 6.59-1.06 9.77-1.47l4.69-.53 4.5-.39 4.27-.23c1.38 0 2.71-.08 4-.08l3.67.08 3.31.21a52.83 52.83 0 0 1 5.33.76c.73.16 1.4.24 2 .41l1.43.39 1.19.33zM63.9 632.29v7.9H42.43v18.62H63.9v7.9H42.43v26.6h-7.9v-61H63.9zM109.16 632.29l22.2 61h-8.39l-7.86-21.59H98.94l-7.82 21.59h-8.47l22.2-61h4.27zm3.09 31.52l-5.23-14.3-5.18 14.3h10.41zM163.65 632.29l19.79 34.21 19.72-34.21h7.21v61h-7.9v-44.07l-19 33-19.11-33v44.09h-7.89v-61h7.18zM248 632.29v61h-7.89v-61H248zM275.86 693.31v-61h7.9v53.09h21.82v7.93h-29.72zM343.35 668.81l-21.09-36.54h9.08l15.94 27.61 16-27.61h9.12l-21.15 36.54v24.5h-7.9v-24.5zM413.97 693.31l-22.16-61h8.39l15.9 43.75 15.94-43.75h8.43l-22.24 61h-4.27zM496.65 632.29v7.9h-25v18.62h25v7.9h-25v18.65h25v7.93h-32.92v-61h32.92zM541.06 640.18v53.13h-7.93v-53.13H518.9v-7.9h36.38v7.9h-14.22zM594.06 662a26.46 26.46 0 0 1-10.51-6.19 13.54 13.54 0 0 1-4-10 14.29 14.29 0 0 1 24.37-10.07 17.51 17.51 0 0 1 4 7.29l-7.27 2.84a13.92 13.92 0 0 0-2.36-4.58 6.47 6.47 0 0 0-9 0 6.42 6.42 0 0 0 0 9.06 20.59 20.59 0 0 0 5.8 3.78 30 30 0 0 1 12.17 7.32 18.15 18.15 0 0 1 5.61 13.43 19 19 0 0 1-32.5 13.46q-4.46-4.46-5.64-12.32l7.67-2.78q.72 6.75 3.55 9.57a11.18 11.18 0 0 0 15.79-15.83 23.18 23.18 0 0 0-7.68-4.98zM210.42 722.88l6.11 14.85 6.12-14.85h1.17l-7.28 17.69-7.27-17.69h1.16zM241.01 722.88v1h-8.67v7.19h8.67v1h-8.67v7.19h8.67v1h-9.77v-17.38h9.77zM254.2 723.81v16.32h-1.1v-16.32h-4.95v-1h11v1h-4.95zM276.35 722.88v1h-8.7v7.19h8.67v1h-8.67v7.19h8.67v1h-9.77v-17.38h9.77zM289.46 734.16h-3.65v6h-1.1v-17.28h5.13a6.82 6.82 0 0 1 3.8 1.65 5.2 5.2 0 0 1 0 8 6.44 6.44 0 0 1-3 1.5l4.51 6.15h-1.36zm-3.65-10.3v9.33h3.32a5.42 5.42 0 0 0 3.72-1.38 4.29 4.29 0 0 0 0-6.6 5.43 5.43 0 0 0-3.72-1.36h-3.32zM304.36 722.88v17.29h-1.1v-17.29h1.1zM313.27 722.88h1.21l10 15.38v-15.38h1.17v17.29h-1.1l-10.15-15.53v15.53h-1.1v-17.29zM343.71 733.55h-6.76l-2.72 6.62h-1.18l7.28-17.69 7.27 17.69h-1.16zm-.4-1l-3-7.25-3 7.25h6zM356.38 722.88v17.29h-1.1v-17.29h1.1zM370.04 734.16h-3.65v6h-1.1v-17.28h5.13a6.82 6.82 0 0 1 3.8 1.65 5.2 5.2 0 0 1 0 8 6.44 6.44 0 0 1-3 1.5l4.51 6.15h-1.36zm-3.65-10.3v9.33h3.32a5.42 5.42 0 0 0 3.72-1.37 4.3 4.3 0 0 0 0-6.6 5.43 5.43 0 0 0-3.72-1.36h-3.32zM393.36 722.88v1h-8.71v7.19h8.67v1h-8.67v7.19h8.67v1h-9.77v-17.38h9.77zM406.58 730.6a8.59 8.59 0 0 1-3.3-1.69 3.36 3.36 0 0 1 0-5.16 4.26 4.26 0 0 1 2.93-1.08 4.3 4.3 0 0 1 2.93 1.07 3.06 3.06 0 0 1 .93 1.29l-1 .35a2.69 2.69 0 0 0-.72-1 3.35 3.35 0 0 0-4.3 0 2.48 2.48 0 0 0 0 3.81 8.35 8.35 0 0 0 2.3 1.33 10 10 0 0 1 3.94 2.08 4.71 4.71 0 0 1 0 7.24 6.3 6.3 0 0 1-8.18 0 4.72 4.72 0 0 1-1.62-2.79l1-.33a3.83 3.83 0 0 0 1.36 2.45 5.15 5.15 0 0 0 6.66 0 3.83 3.83 0 0 0 0-5.89 9.11 9.11 0 0 0-2.93-1.68zM440.65 734.81h163M440.65 733.81h163v2h-163zM24.65 734.81h161M24.65 733.81h161v2h-161z"/><path d="M343.97 337.08a3.66 3.66 0 0 1-.61 2 16 16 0 0 1-1.35 1.58l-4 4.05a1 1 0 0 1-1.47 0l-4-4.05a15.72 15.72 0 0 1-1.35-1.58 3.65 3.65 0 0 1-.61-2 3.79 3.79 0 0 1 6.53-2.62l.08.08a.18.18 0 0 0 .29 0l.08-.08a3.79 3.79 0 0 1 6.41 2.62z"/></svg>
